<?xml version="1.0" encoding="UTF-8" standalone="no"?>
<svg
   xmlns:dc="http://purl.org/dc/elements/1.1/"
   xmlns:cc="http://creativecommons.org/ns#"
   xmlns:rdf="http://www.w3.org/1999/02/22-rdf-syntax-ns#"
   xmlns:svg="http://www.w3.org/2000/svg"
   xmlns="http://www.w3.org/2000/svg"
   xmlns:sodipodi="http://sodipodi.sourceforge.net/DTD/sodipodi-0.dtd"
   xmlns:inkscape="http://www.inkscape.org/namespaces/inkscape"
   id="Layer_1"
   version="1.1"
   viewBox="0 0 48 48"
   xml:space="preserve"
   inkscape:version="0.48.4 r9939"
   width="100%"
   height="100%"
   sodipodi:docname="error.svg"><metadata
     id="metadata13"><rdf:RDF><cc:Work
         rdf:about=""><dc:format>image/svg+xml</dc:format><dc:type
           rdf:resource="http://purl.org/dc/dcmitype/StillImage" /><dc:title></dc:title></cc:Work></rdf:RDF></metadata><defs
     id="defs11" /><sodipodi:namedview
     pagecolor="#ffffff"
     bordercolor="#666666"
     borderopacity="1"
     objecttolerance="10"
     gridtolerance="10"
     guidetolerance="10"
     inkscape:pageopacity="0"
     inkscape:pageshadow="2"
     inkscape:window-width="1855"
     inkscape:window-height="1056"
     id="namedview9"
     showgrid="false"
     inkscape:snap-page="true"
     inkscape:zoom="1.1919192"
     inkscape:cx="31.322123"
     inkscape:cy="22.868773"
     inkscape:window-x="65"
     inkscape:window-y="24"
     inkscape:window-maximized="1"
     inkscape:current-layer="Layer_1" /><style
     type="text/css"
     id="style3">
	.st0{fill:#41AD49;}
</style><path
     sodipodi:type="arc"
     id="path3779"
     sodipodi:cx="0"
     sodipodi:cy="-3.5527137e-15"
     sodipodi:rx="34.705162"
     sodipodi:ry="34.058609"
     d="M 34.705162,0 A 34.705162,34.058609 0 1 1 -34.705162,0 34.705162,34.058609 0 1 1 34.705162,0 z"
     transform="matrix(0.69153978,0,0,0.70466765,24,24)"
     style="fill:#ffffff" /><g
     transform="matrix(0.09375,0,0,0.09375,-4.6875,-13.125)"
     id="g3854"
     style="fill:#ffcc00"><path
       inkscape:connector-curvature="0"
       class="st0"
       d="M 562,396 C 562,254.6 447.4,140 306,140 164.6,140 50,254.6 50,396 50,537.4 164.6,652 306,652 447.4,652 562,537.4 562,396 l 0,0 z M 499.3,352.6 415.5,451 425.5,579.8 306,530.5 186.5,579.8 196.5,451 112.7,352.6 238.3,322.3 306,212.2 l 67.6,110.1 125.7,30.3 0,0 z"
       id="path3856"
       style="fill:#ffcc00" /></g></svg>