<svg xmlns="http://www.w3.org/2000/svg" version="1.1" xmlns:xlink="http://www.w3.org/1999/xlink"
     preserveAspectRatio="none" x="0px" y="0px" width="280px" height="290px" viewBox="0 0 280 290">
  <defs>
    <g id="Layer1_0_FILL">
      <path fill="#FFFFFF" stroke="none" d="
M 140 256.1
L 140 290 200 290 200 256.1
Q 185.8021484375 260 170 260 154.19765625 260 140 256.1
M 99.3 220.7
Q 103.994921875 225.394921875 109 229.3 123.2423828125 240.549609375 140 245.65 152.959375 249.65078125 167.4 249.95 168.709375 250 170 250 171.2908203125 250 172.55 249.95 187.03984375 249.65078125 200 245.65 222.646875 238.753125 240.7 220.7 270 191.4 270 150
L 70 150
Q 70 177.9595703125 83.35 200.4 89.787890625 211.187890625 99.3 220.7
M 130 15
Q 130 8.8 125.55 4.4 121.2 0 115 0 108.8 0 104.35 4.4 100 8.8 100 15
L 100 100.05 130 100.05 130 15
M 280 140
L 280 110 79.35 110
Q 78.892578125 110 78 110 77.9349609375 110 77.85 110
L 59.85 110
Q 59.4 110 58.9 110
L 58.4 110
Q 34.95 110.55 17.95 126 17.4 126 17.4 126.55 0 144 0 166.95 0 167.75390625 0 168.55 0.0267578125 168.6693359375 0 168.8 0.05234375 169.6236328125 0.1 170.45
L 0.05 170.45 0.1 176.45
Q 1.3 198.15 17.4 213.95
L 17.95 213.95
Q 35.45 230.4 59.85 230.4
L 94.9 230.4
Q 93.5537109375 229.1037109375 92.2 227.75 79.555078125 215.105078125 71.85 200.4
L 59.85 200.4
Q 47.4 200.4 38.45 192.4
L 38.45 191.9
Q 31.35 185.3 30 176.45
L 30 170.45
Q 29.95 168.74140625 29.95 166.95 29.95 156.05 38.45 147.5
L 37.9 148.5
Q 46.9 140.5 59.4 140
L 77.85 140
Q 78.85 140 79.35 140
L 280 140
M 235.55 4.4
Q 231.2 0 225 0 218.8 0 214.35 4.4 210 8.8 210 15
L 210 100.05 240 100.05 240 15
Q 240 8.8 235.55 4.4 Z"/>
    </g>
  </defs>

  <g transform="matrix( 1, 0, 0, 1, 0,0) ">
    <use xlink:href="#Layer1_0_FILL"/>
  </g>
</svg>
